HIERARCHY
ROOT joint_Root
{
	OFFSET 0.0 0.0 0.0
	CHANNELS 6 Xposition Yposition Zposition Zrotation Xrotation Yrotation 
	JOINT Hips
	{
		OFFSET -17.1583 93.1646 452.98
		CHANNELS 6 Xposition Yposition Zposition Zrotation Xrotation Yrotation 
		JOINT Spine
		{
			OFFSET 15.7357 0.0 0.0
			CHANNELS 6 Xposition Yposition Zposition Zrotation Xrotation Yrotation 
			JOINT Chest
			{
				OFFSET 8.98455 -0.406207 0.0
				CHANNELS 6 Xposition Yposition Zposition Zrotation Xrotation Yrotation 
				JOINT Neck
				{
					OFFSET 16.3773 0.0 0.0
					CHANNELS 6 Xposition Yposition Zposition Zrotation Xrotation Yrotation 
					JOINT Head
					{
						OFFSET 6.45672 0.0 0.0
						CHANNELS 6 Xposition Yposition Zposition Zrotation Xrotation Yrotation 
						End Site
						{
							OFFSET 0.0 0.0 0.0
						}
					}
				}
				JOINT Shoulder_L
				{
					OFFSET 12.9942 -0.242716 4.98039
					CHANNELS 6 Xposition Yposition Zposition Zrotation Xrotation Yrotation 
					JOINT UpperArm_L
					{
						OFFSET 5.34809 0.0 0.0
						CHANNELS 6 Xposition Yposition Zposition Zrotation Xrotation Yrotation 
						JOINT LowerArm_L
						{
							OFFSET 24.3286 1.87007e-05 0.0
							CHANNELS 6 Xposition Yposition Zposition Zrotation Xrotation Yrotation 
							JOINT Hand_L
							{
								OFFSET 22.2916 0.0 0.0
								CHANNELS 6 Xposition Yposition Zposition Zrotation Xrotation Yrotation 
								End Site
								{
									OFFSET 0.0 0.0 0.0
								}
							}
						}
					}
				}
				JOINT Shoulder_R
				{
					OFFSET 12.9945 -0.242716 -4.98039
					CHANNELS 6 Xposition Yposition Zposition Zrotation Xrotation Yrotation 
					JOINT UpperArm_R
					{
						OFFSET -5.34813 0.0 0.0
						CHANNELS 6 Xposition Yposition Zposition Zrotation Xrotation Yrotation 
						JOINT LowerArm_R
						{
							OFFSET -24.3289 0.000322201 0.0
							CHANNELS 6 Xposition Yposition Zposition Zrotation Xrotation Yrotation 
							JOINT Hand_R
							{
								OFFSET -22.2915 -0.000108084 0.0
								CHANNELS 6 Xposition Yposition Zposition Zrotation Xrotation Yrotation 
								End Site
								{
									OFFSET 0.0 0.0 0.0
								}
							}
						}
					}
				}
			}
		}
		JOINT UpperLeg_L
		{
			OFFSET -2.19248 -6.46944 0.0
			CHANNELS 6 Xposition Yposition Zposition Zrotation Xrotation Yrotation 
			JOINT LowerLeg_L
			{
				OFFSET 39.0811 0.0 -1.23785e-05
				CHANNELS 6 Xposition Yposition Zposition Zrotation Xrotation Yrotation 
				JOINT Foot_L
				{
					OFFSET 40.9854 0.0 -1.26872e-05
					CHANNELS 6 Xposition Yposition Zposition Zrotation Xrotation Yrotation 
					JOINT Toes_L
					{
						OFFSET 11.7543 0.0 0.0
						CHANNELS 6 Xposition Yposition Zposition Zrotation Xrotation Yrotation 
						End Site
						{
							OFFSET 0.0 0.0 0.0
						}
					}
				}
			}
		}
		JOINT UpperLeg_R
		{
			OFFSET -2.19251 6.46944 0.0
			CHANNELS 6 Xposition Yposition Zposition Zrotation Xrotation Yrotation 
			JOINT LowerLeg_R
			{
				OFFSET -39.0811 -0.00228153 -0.0401928
				CHANNELS 6 Xposition Yposition Zposition Zrotation Xrotation Yrotation 
				JOINT Foot_R
				{
					OFFSET -40.9854 0.0 0.0
					CHANNELS 6 Xposition Yposition Zposition Zrotation Xrotation Yrotation 
					JOINT Toes_R
					{
						OFFSET -11.7543 0.0 0.0
						CHANNELS 6 Xposition Yposition Zposition Zrotation Xrotation Yrotation 
						End Site
						{
							OFFSET 0.0 0.0 0.0
						}
					}
				}
			}
		}
	}
}
MOTION
Frames:	4
Frame Time:	0.0333333
0.000000 0.000000 0.000000 0.000000 0.000000 -0.000000 -5.126880 91.727100 -0.798778 85.481100 3.594180 7.996560 15.735700 0.000005 -0.000001 78.489300 85.435700 -77.569600 8.984550 -0.406207 -0.000000 1.195340 -1.873510 1.857450 16.377300 -0.000001 -0.000001 13.026800 1.300690 4.109090 6.456720 -0.000001 -0.000000 -6.012650 -0.814300 15.014600 12.994200 -0.242716 4.980390 -93.201000 8.982980 -70.293600 5.348090 -0.000007 -0.000001 -69.548200 29.644400 -1.892670 24.328600 0.000019 0.000005 11.845900 28.419600 -23.783700 22.291600 -0.000001 0.000005 -5.310300 5.102190 5.063430 12.994500 -0.242716 -4.980390 86.590300 8.395530 -67.801300 -5.348130 -0.000001 -0.000004 -67.601500 -9.099030 -12.116700 -24.328900 0.000322 -0.000009 15.128400 -14.536700 -132.873000 -22.291500 -0.000108 -0.000004 59.299900 5.641900 -14.300600 -2.192480 -6.469440 -0.000000 -173.892000 5.475090 -0.612229 39.081100 -0.000007 -0.000012 0.392007 -0.720857 28.538600 40.985400 -0.000006 -0.000013 -0.579771 3.827050 -76.022100 11.754300 -0.000000 0.000003 -0.000458 0.175000 -9.478460 -2.192510 6.469440 -0.000001 -171.900000 14.121400 -173.046000 -39.081100 -0.002282 -0.040193 0.146629 -0.496955 16.085500 -40.985400 0.000008 0.000006 7.122540 3.541170 -71.964600 -11.754300 -0.000006 -0.000006 -0.010131 0.272279 -5.511140
0.000000 0.000000 0.000000 0.000000 0.000000 -0.000000 -5.077170 91.730500 -0.809960 85.473300 3.607120 7.998240 15.735700 0.000005 -0.000001 78.594300 85.432800 -77.678800 8.984550 -0.406207 -0.000000 1.204310 -1.857990 1.848950 16.377300 -0.000001 -0.000001 13.035100 1.277590 4.042010 6.456720 -0.000001 -0.000000 -6.020120 -0.827180 14.935700 12.994200 -0.242716 4.980390 -93.199000 8.979830 -70.298600 5.348090 -0.000007 -0.000001 -69.544200 29.669100 -1.902110 24.328600 0.000019 0.000005 11.852800 28.529000 -23.721900 22.291600 -0.000001 0.000005 -5.349880 5.104220 5.016730 12.994500 -0.242716 -4.980390 86.588400 8.379990 -67.753100 -5.348130 -0.000001 -0.000004 -68.336600 -10.326600 -12.655700 -24.328900 0.000322 -0.000009 8.653260 -8.544870 -134.313000 -22.291500 -0.000108 -0.000004 60.582300 5.572450 -9.828380 -2.192480 -6.469440 -0.000000 -173.910000 5.448910 -0.634731 39.081100 -0.000007 -0.000012 0.387456 -0.712490 28.538500 40.985400 -0.000006 -0.000013 -0.539852 3.838350 -75.931500 11.754300 -0.000000 0.000003 -0.000327 0.172951 -9.561720 -2.192510 6.469440 -0.000001 -171.908000 14.072700 -173.078000 -39.081100 -0.002282 -0.040193 0.147438 -0.498717 16.117500 -40.985400 0.000008 0.000006 7.080380 3.477610 -71.949600 -11.754300 -0.000006 -0.000006 -0.010275 0.273346 -5.467510
0.000000 0.000000 0.000000 0.000000 0.000000 -0.000000 -5.023790 91.736800 -0.837603 85.489600 3.644470 7.951250 15.735700 0.000005 -0.000001 78.436600 85.436900 -77.518900 8.984550 -0.406207 -0.000000 1.191350 -1.881170 1.853610 16.377300 -0.000001 -0.000001 12.975900 1.296210 3.880280 6.456720 -0.000001 -0.000000 -5.998660 -0.812598 14.864000 12.994200 -0.242716 4.980390 -93.208300 9.004220 -70.294800 5.348090 -0.000007 -0.000001 -69.569400 29.694100 -1.857070 24.328600 0.000019 0.000005 11.812300 28.507100 -23.662600 22.291600 -0.000001 0.000005 -5.222680 5.103300 5.037890 12.994500 -0.242716 -4.980390 86.602500 8.339290 -67.739000 -5.348130 -0.000001 -0.000004 -69.039100 -11.775100 -13.133600 -24.328900 0.000322 -0.000009 1.143940 -1.154340 -135.249000 -22.291500 -0.000108 -0.000004 61.482800 5.511650 -7.011030 -2.192480 -6.469440 -0.000000 -173.973000 5.446740 -0.696505 39.081100 -0.000007 -0.000012 0.391587 -0.720353 28.529600 40.985400 -0.000006 -0.000013 -0.503651 3.806300 -75.913400 11.754300 -0.000000 0.000003 -0.000332 0.173034 -9.558350 -2.192510 6.469440 -0.000001 -171.973000 14.157700 -173.173000 -39.081100 -0.002282 -0.040193 0.147810 -0.498000 16.178900 -40.985400 0.000008 0.000006 7.046260 3.527240 -71.971900 -11.754300 -0.000006 -0.000006 -0.010510 0.275080 -5.396540
0.000000 0.000000 0.000000 0.000000 0.000000 -0.000000 -4.986020 91.743600 -0.860818 85.451900 3.654210 7.960090 15.735700 0.000005 -0.000001 78.281400 85.429500 -77.343400 8.984550 -0.406207 -0.000000 1.201500 -1.909460 1.894550 16.377300 -0.000001 -0.000001 12.967000 1.293420 3.790580 6.456720 -0.000001 -0.000000 -5.986370 -0.760930 14.728400 12.994200 -0.242716 4.980390 -93.224600 9.058620 -70.311000 5.348090 -0.000007 -0.000001 -69.587100 29.663400 -1.720070 24.328600 0.000019 0.000005 11.756300 28.417700 -23.620100 22.291600 -0.000001 0.000005 -5.219310 5.101320 5.083500 12.994500 -0.242716 -4.980390 86.614700 8.287920 -67.688600 -5.348130 -0.000001 -0.000004 -69.567700 -13.061600 -13.430300 -24.328900 0.000322 -0.000009 -3.974110 3.990990 -135.055000 -22.291500 -0.000108 -0.000004 62.159800 5.464820 -5.180100 -2.192480 -6.469440 -0.000000 -173.952000 5.427360 -0.720263 39.081100 -0.000007 -0.000012 0.388498 -0.714449 28.537100 40.985400 -0.000006 -0.000013 -0.473757 3.826470 -75.864900 11.754300 -0.000000 0.000003 -0.000321 0.172863 -9.565310 -2.192510 6.469440 -0.000001 -171.937000 14.066800 -173.175000 -39.081100 -0.002282 -0.040193 0.147243 -0.496971 16.150300 -40.985400 0.000008 0.000006 7.010230 3.459180 -71.940700 -11.754300 -0.000006 -0.000006 -0.010474 0.274815 -5.407400
